<svg width="25" height="24" viewBox="0 0 25 24" fill="none" xmlns="http://www.w3.org/2000/svg">
<g id="Github Logo" clip-path="url(#clip0_5_2)">
<g id="Group">
<path id="Vector" d="M12.5001 0C5.8735 0 0.5 5.50144 0.5 12.2881C0.5 17.7173 3.93839 22.3234 8.7064 23.9482C9.30613 24.062 9.52631 23.6817 9.52631 23.3571C9.52631 23.0641 9.51518 22.0961 9.51001 21.0693C6.17157 21.8127 5.46712 19.6195 5.46712 19.6195C4.92125 18.1992 4.13473 17.8215 4.13473 17.8215C3.04596 17.0588 4.2168 17.0745 4.2168 17.0745C5.42181 17.1612 6.05632 18.3408 6.05632 18.3408C7.1266 20.2194 8.86359 19.6763 9.54836 19.3623C9.65607 18.5681 9.96706 18.026 10.3102 17.7191C7.64486 17.4084 4.84295 16.3548 4.84295 11.6463C4.84295 10.3047 5.31172 9.20855 6.07937 8.34801C5.95477 8.0385 5.54402 6.78869 6.19562 5.0961C6.19562 5.0961 7.20331 4.76584 9.4965 6.35568C10.4537 6.08341 11.4803 5.94687 12.5001 5.94219C13.5199 5.94687 14.5473 6.08341 15.5063 6.35568C17.7967 4.76584 18.803 5.0961 18.803 5.0961C19.4562 6.78869 19.0452 8.0385 18.9206 8.34801C19.6901 9.20855 20.1557 10.3047 20.1557 11.6463C20.1557 16.366 17.3484 17.4052 14.6762 17.7094C15.1067 18.0907 15.4902 18.8385 15.4902 19.985C15.4902 21.6291 15.4763 22.9524 15.4763 23.3571C15.4763 23.6841 15.6923 24.0673 16.3006 23.9466C21.066 22.32 24.5 17.7155 24.5 12.2881C24.5 5.50144 19.1273 0 12.5001 0ZM4.99443 17.5047C4.968 17.5657 4.8742 17.584 4.78876 17.5421C4.70172 17.502 4.65283 17.4188 4.68105 17.3575C4.70688 17.2947 4.80088 17.2772 4.88772 17.3193C4.97495 17.3594 5.02463 17.4434 4.99443 17.5047ZM5.5847 18.044C5.52747 18.0983 5.41559 18.0731 5.33968 17.9872C5.26119 17.9016 5.24648 17.787 5.30451 17.7318C5.36353 17.6775 5.47203 17.7029 5.55072 17.7886C5.62921 17.8753 5.64451 17.989 5.5847 18.044ZM5.98965 18.734C5.91612 18.7863 5.7959 18.7373 5.72158 18.628C5.64805 18.5188 5.64805 18.3877 5.72317 18.3352C5.79769 18.2827 5.91612 18.3299 5.99144 18.4384C6.06476 18.5495 6.06476 18.6805 5.98965 18.734ZM6.6745 19.5332C6.60873 19.6075 6.46863 19.5876 6.36609 19.4862C6.26117 19.3871 6.23196 19.2465 6.29793 19.1722C6.3645 19.0978 6.50539 19.1187 6.60873 19.2193C6.71285 19.3181 6.74465 19.4598 6.6745 19.5332ZM7.55961 19.803C7.5306 19.8993 7.39567 19.943 7.25975 19.9021C7.12402 19.86 7.0352 19.7473 7.06262 19.65C7.09084 19.5531 7.22636 19.5076 7.36328 19.5513C7.4988 19.5932 7.58783 19.7052 7.55961 19.803ZM8.5669 19.9175C8.57028 20.0188 8.45502 20.1028 8.31235 20.1047C8.16887 20.1079 8.05282 20.0259 8.05123 19.9262C8.05123 19.8239 8.1639 19.7406 8.30738 19.7382C8.45006 19.7353 8.5669 19.8167 8.5669 19.9175ZM9.55645 19.8786C9.57354 19.9775 9.47438 20.0791 9.3327 20.1061C9.1934 20.1322 9.06443 20.0711 9.04674 19.973C9.02946 19.8717 9.1304 19.7702 9.2695 19.7439C9.41139 19.7187 9.53837 19.7781 9.55645 19.8786Z" fill="white"/>
</g>
</g>
<defs>
<clipPath id="clip0_5_2">
<rect width="24" height="24" fill="white" transform="translate(0.5)"/>
</clipPath>
</defs>
</svg>
